<svg width="165" height="41" viewBox="0 0 165 41" fill="none" xmlns="http://www.w3.org/2000/svg">
<path d="M17.1331 27.3089V28.6203C17.1331 28.8318 16.9616 29.0015 16.7519 29.0015H0.3812C0.169636 29.0015 0 28.8318 0 28.6203V27.3089C0 25.9557 1.09595 24.8578 2.44919 24.854H14.6837C16.0369 24.8579 17.1331 25.9557 17.1331 27.3089ZM1.42209 29.7638V36.8389C1.42209 38.7659 2.98309 40.3269 4.91005 40.3269H12.2232C13.1476 40.3269 14.0339 39.959 14.6896 39.3052C15.3433 38.6515 15.7093 37.7652 15.7093 36.8389V29.7638L1.42209 29.7638ZM6.45954 22.3326V22.3345C6.24988 22.3345 6.07834 22.1629 6.07834 21.9533C6.07834 21.7417 6.24988 21.5721 6.45954 21.5721H8.94499V20.2608H7.92911C7.71754 20.2608 7.5479 20.0892 7.5479 19.8796C7.5479 19.668 7.71754 19.4984 7.92911 19.4984H8.94499V18.1908H6.45954C6.24988 18.1908 6.07834 18.0212 6.07834 17.8096C6.07834 17.6 6.24988 17.4284 6.45954 17.4284H8.94499V16.1228H7.92911C7.71754 16.1228 7.5479 15.9513 7.5479 15.7416C7.5479 15.532 7.71754 15.3604 7.92911 15.3604H8.94499V14.7448C8.94499 13.9633 8.31409 13.3306 7.53266 13.3268H4.62983C3.85216 13.3363 3.22701 13.9691 3.22701 14.7448V24.0917H8.94513V22.3343L6.45954 22.3326ZM14.6383 18.3929L10.2259 18.3948V19.7004H14.6383V18.3929ZM14.6116 17.6229C14.5545 16.9062 14.3372 16.2105 13.9769 15.5892L12.7571 13.5211C12.6828 13.4125 12.5608 13.3477 12.4293 13.3477C12.2977 13.3477 12.1758 13.4125 12.1014 13.5211L10.8873 15.5892C10.5251 16.2105 10.3079 16.9062 10.2507 17.6229H14.6116ZM10.2259 20.4533V24.0823H14.6383V20.4628L10.2259 20.4533ZM35.8523 6.46515H39.9845C39.9712 6.39463 39.9388 6.32983 39.8893 6.27836L33.6261 0.106951C33.6013 0.0821731 33.5689 0.061207 33.5346 0.045959V4.14764C33.5384 5.42657 34.5734 6.46325 35.8523 6.46515ZM35.8523 7.22755C34.1522 7.22564 32.776 5.84762 32.7722 4.14746V0H14.6176C13.2643 0 12.1684 1.09786 12.1684 2.4511V12.6158C12.6506 12.4995 13.1538 12.7035 13.4187 13.1247L14.6329 15.1927C15.056 15.917 15.3076 16.7289 15.3705 17.5657V17.6229H15.4257V17.9069L15.462 18.3853H15.4257V24.1737C16.8857 24.5091 17.9207 25.8109 17.9207 27.309V28.6204C17.9207 29.2532 17.4099 29.764 16.7771 29.764H16.4969L16.4988 36.8391V36.9515H37.5508C38.9021 36.9496 39.9981 35.8537 40 34.5023V7.22768L35.8523 7.22755ZM35.8885 32.9413H28.3353C28.1256 32.9413 27.9541 32.7697 27.9541 32.5601C27.9541 32.3504 28.1256 32.1789 28.3353 32.1789H35.8885C36.0982 32.1789 36.2697 32.3504 36.2697 32.5601C36.2697 32.7697 36.0982 32.9413 35.8885 32.9413ZM35.8885 30.8733H24.142C23.9323 30.8733 23.7608 30.7017 23.7608 30.4921C23.7608 30.2805 23.9323 30.1109 24.142 30.1109H35.8885C36.0982 30.1109 36.2697 30.2805 36.2697 30.4921C36.2697 30.7017 36.0982 30.8733 35.8885 30.8733ZM35.8885 28.8052L28.3353 28.8033C28.1256 28.8033 27.9541 28.6337 27.9541 28.4221C27.9541 28.2125 28.1256 28.0409 28.3353 28.0409H35.8885C36.0982 28.0409 36.2697 28.2125 36.2697 28.4221C36.2697 28.6337 36.0982 28.8033 35.8885 28.8033V28.8052ZM35.8885 26.7315L24.142 26.7296C23.9323 26.7296 23.7608 26.56 23.7608 26.3484C23.7608 26.1388 23.9323 25.9672 24.142 25.9672H35.8885C36.0982 25.9672 36.2697 26.1388 36.2697 26.3484C36.2697 26.56 36.0982 26.7296 35.8885 26.7296V26.7315ZM35.8885 24.6635L28.3353 24.6616C28.1256 24.6616 27.9541 24.4901 27.9541 24.2804C27.9541 24.0707 28.1256 23.8992 28.3353 23.8992H35.8885C36.0982 23.8992 36.2697 24.0707 36.2697 24.2804C36.2697 24.4901 36.0982 24.6616 35.8885 24.6616V24.6635ZM35.8885 22.5955L24.142 22.5936C23.9323 22.5936 23.7608 22.422 23.7608 22.2124C23.7608 22.0008 23.9323 21.8312 24.142 21.8312H35.8885C36.0982 21.8312 36.2697 22.0008 36.2697 22.2124C36.2697 22.422 36.0982 22.5936 35.8885 22.5936V22.5955ZM36.264 18.8121C36.264 19.0217 36.0944 19.1933 35.8828 19.1933H20.1259H20.1278C19.9181 19.1895 19.7485 19.0217 19.7466 18.8121V9.83113C19.7485 9.62147 19.9181 9.45183 20.1278 9.44993H35.8847H35.8828C36.0944 9.44993 36.264 9.61956 36.264 9.83113V18.8121ZM20.5071 18.4309H35.5072V10.2121H20.509L20.5071 18.4309Z" fill="#6E9C9F"/>
<path d="M49.209 17V7.77H50.106V15.752L55.826 7.77H56.671V17H55.774V9.161L50.119 17H49.209ZM58.839 17V10.227H59.723V13.139H63.597V10.227H64.481V17H63.597V13.932H59.723V17H58.839ZM68.1211 17V11.02H65.7031V10.227H71.4231V11.02H69.0051V17H68.1211ZM75.5514 17.13C75.066 17.13 74.6154 17.039 74.1994 16.857C73.7834 16.6663 73.4237 16.4107 73.1204 16.09C72.817 15.7607 72.5787 15.3837 72.4054 14.959C72.2407 14.5343 72.1584 14.0793 72.1584 13.594C72.1584 12.9613 72.3014 12.3807 72.5874 11.852C72.882 11.3233 73.285 10.903 73.7964 10.591C74.3077 10.2703 74.8884 10.11 75.5384 10.11C76.2057 10.11 76.7864 10.2703 77.2804 10.591C77.783 10.9117 78.1774 11.3363 78.4634 11.865C78.7494 12.385 78.8924 12.957 78.8924 13.581C78.8924 13.6503 78.8924 13.7197 78.8924 13.789C78.8924 13.8497 78.888 13.8973 78.8794 13.932H73.0814C73.1247 14.4173 73.259 14.8507 73.4844 15.232C73.7184 15.6047 74.0174 15.9037 74.3814 16.129C74.754 16.3457 75.157 16.454 75.5904 16.454C76.0324 16.454 76.4484 16.3413 76.8384 16.116C77.237 15.8907 77.5144 15.596 77.6704 15.232L78.4374 15.44C78.2987 15.7607 78.0864 16.051 77.8004 16.311C77.5144 16.571 77.1764 16.7747 76.7864 16.922C76.405 17.0607 75.9934 17.13 75.5514 17.13ZM73.0554 13.295H78.0604C78.0257 12.801 77.8914 12.3677 77.6574 11.995C77.432 11.6223 77.133 11.332 76.7604 11.124C76.3964 10.9073 75.9934 10.799 75.5514 10.799C75.1094 10.799 74.7064 10.9073 74.3424 11.124C73.9784 11.332 73.6794 11.6267 73.4454 12.008C73.22 12.3807 73.09 12.8097 73.0554 13.295ZM83.7143 17.13C83.1509 17.13 82.6439 16.9827 82.1933 16.688C81.7513 16.3933 81.4003 16.0293 81.1403 15.596V19.769H80.2563V10.227H81.0493V11.54C81.3179 11.1153 81.6776 10.773 82.1283 10.513C82.5789 10.2443 83.0599 10.11 83.5713 10.11C84.0393 10.11 84.4683 10.2097 84.8583 10.409C85.2483 10.5997 85.5863 10.8597 85.8723 11.189C86.1583 11.5183 86.3793 11.8953 86.5353 12.32C86.6999 12.736 86.7823 13.1693 86.7823 13.62C86.7823 14.2527 86.6523 14.8377 86.3923 15.375C86.1409 15.9037 85.7856 16.3283 85.3263 16.649C84.8669 16.9697 84.3296 17.13 83.7143 17.13ZM83.4673 16.35C83.8399 16.35 84.1736 16.2763 84.4683 16.129C84.7629 15.973 85.0143 15.765 85.2223 15.505C85.4389 15.245 85.6036 14.9547 85.7163 14.634C85.8289 14.3047 85.8853 13.9667 85.8853 13.62C85.8853 13.256 85.8203 12.9093 85.6903 12.58C85.5689 12.2507 85.3913 11.9603 85.1573 11.709C84.9233 11.4577 84.6546 11.2583 84.3513 11.111C84.0479 10.9637 83.7186 10.89 83.3633 10.89C83.1379 10.89 82.9039 10.9333 82.6613 11.02C82.4186 11.1067 82.1846 11.2323 81.9593 11.397C81.7426 11.553 81.5606 11.7307 81.4133 11.93C81.2659 12.1293 81.1749 12.3417 81.1403 12.567V14.647C81.2789 14.9677 81.4653 15.258 81.6993 15.518C81.9333 15.7693 82.2019 15.973 82.5053 16.129C82.8173 16.2763 83.1379 16.35 83.4673 16.35ZM88.2667 17V10.227H89.1507V13.139H93.0247V10.227H93.9087V17H93.0247V13.932H89.1507V17H88.2667ZM98.7838 17.13C98.2985 17.13 97.8478 17.039 97.4318 16.857C97.0158 16.6663 96.6561 16.4107 96.3528 16.09C96.0495 15.7607 95.8111 15.3837 95.6378 14.959C95.4731 14.5343 95.3908 14.0793 95.3908 13.594C95.3908 12.9613 95.5338 12.3807 95.8198 11.852C96.1145 11.3233 96.5175 10.903 97.0288 10.591C97.5401 10.2703 98.1208 10.11 98.7708 10.11C99.4381 10.11 100.019 10.2703 100.513 10.591C101.015 10.9117 101.41 11.3363 101.696 11.865C101.982 12.385 102.125 12.957 102.125 13.581C102.125 13.6503 102.125 13.7197 102.125 13.789C102.125 13.8497 102.12 13.8973 102.112 13.932H96.3138C96.3571 14.4173 96.4915 14.8507 96.7168 15.232C96.9508 15.6047 97.2498 15.9037 97.6138 16.129C97.9865 16.3457 98.3895 16.454 98.8228 16.454C99.2648 16.454 99.6808 16.3413 100.071 16.116C100.469 15.8907 100.747 15.596 100.903 15.232L101.67 15.44C101.531 15.7607 101.319 16.051 101.033 16.311C100.747 16.571 100.409 16.7747 100.019 16.922C99.6375 17.0607 99.2258 17.13 98.7838 17.13ZM96.2878 13.295H101.293C101.258 12.801 101.124 12.3677 100.89 11.995C100.664 11.6223 100.365 11.332 99.9928 11.124C99.6288 10.9073 99.2258 10.799 98.7838 10.799C98.3418 10.799 97.9388 10.9073 97.5748 11.124C97.2108 11.332 96.9118 11.6267 96.6778 12.008C96.4525 12.3807 96.3225 12.8097 96.2878 13.295ZM105.179 17V11.02H102.761V10.227H108.481V11.02H106.063V17H105.179ZM109.593 14.478V13.841H113.519V14.478H109.593ZM109.593 12.983V12.346H113.519V12.983H109.593ZM115.371 17V10.227H116.281L118.972 14.894L121.676 10.227H122.547V17H121.702V11.553L119.258 15.791H118.686L116.216 11.553V17H115.371ZM123.953 15.05C123.953 14.6253 124.075 14.2613 124.317 13.958C124.56 13.646 124.894 13.4077 125.318 13.243C125.752 13.0697 126.25 12.983 126.813 12.983C127.143 12.983 127.485 13.009 127.84 13.061C128.196 13.113 128.512 13.191 128.789 13.295V12.723C128.789 12.151 128.62 11.696 128.282 11.358C127.944 11.02 127.476 10.851 126.878 10.851C126.514 10.851 126.155 10.9203 125.799 11.059C125.453 11.189 125.089 11.384 124.707 11.644L124.369 11.02C124.811 10.7167 125.245 10.4913 125.669 10.344C126.094 10.188 126.527 10.11 126.969 10.11C127.801 10.11 128.46 10.3483 128.945 10.825C129.431 11.3017 129.673 11.9603 129.673 12.801V15.934C129.673 16.0553 129.699 16.1463 129.751 16.207C129.803 16.259 129.886 16.2893 129.998 16.298V17C129.903 17.0087 129.821 17.0173 129.751 17.026C129.682 17.0347 129.63 17.0347 129.595 17.026C129.379 17.0173 129.214 16.948 129.101 16.818C128.989 16.688 128.928 16.5493 128.919 16.402L128.906 15.908C128.603 16.298 128.209 16.6013 127.723 16.818C127.238 17.026 126.744 17.13 126.241 17.13C125.808 17.13 125.414 17.039 125.058 16.857C124.712 16.6663 124.439 16.415 124.239 16.103C124.049 15.7823 123.953 15.4313 123.953 15.05ZM128.49 15.57C128.586 15.4487 128.659 15.3317 128.711 15.219C128.763 15.1063 128.789 15.0067 128.789 14.92V13.932C128.495 13.8193 128.187 13.7327 127.866 13.672C127.554 13.6113 127.238 13.581 126.917 13.581C126.285 13.581 125.773 13.7067 125.383 13.958C124.993 14.2093 124.798 14.5517 124.798 14.985C124.798 15.2363 124.863 15.4747 124.993 15.7C125.123 15.9167 125.314 16.0987 125.565 16.246C125.817 16.3847 126.111 16.454 126.449 16.454C126.874 16.454 127.268 16.3717 127.632 16.207C128.005 16.0423 128.291 15.83 128.49 15.57ZM131.57 17V10.227H135.613V11.02H132.454V17H131.57ZM136.306 15.05C136.306 14.6253 136.427 14.2613 136.67 13.958C136.913 13.646 137.246 13.4077 137.671 13.243C138.104 13.0697 138.603 12.983 139.166 12.983C139.495 12.983 139.838 13.009 140.193 13.061C140.548 13.113 140.865 13.191 141.142 13.295V12.723C141.142 12.151 140.973 11.696 140.635 11.358C140.297 11.02 139.829 10.851 139.231 10.851C138.867 10.851 138.507 10.9203 138.152 11.059C137.805 11.189 137.441 11.384 137.06 11.644L136.722 11.02C137.164 10.7167 137.597 10.4913 138.022 10.344C138.447 10.188 138.88 10.11 139.322 10.11C140.154 10.11 140.813 10.3483 141.298 10.825C141.783 11.3017 142.026 11.9603 142.026 12.801V15.934C142.026 16.0553 142.052 16.1463 142.104 16.207C142.156 16.259 142.238 16.2893 142.351 16.298V17C142.256 17.0087 142.173 17.0173 142.104 17.026C142.035 17.0347 141.983 17.0347 141.948 17.026C141.731 17.0173 141.567 16.948 141.454 16.818C141.341 16.688 141.281 16.5493 141.272 16.402L141.259 15.908C140.956 16.298 140.561 16.6013 140.076 16.818C139.591 17.026 139.097 17.13 138.594 17.13C138.161 17.13 137.766 17.039 137.411 16.857C137.064 16.6663 136.791 16.415 136.592 16.103C136.401 15.7823 136.306 15.4313 136.306 15.05ZM140.843 15.57C140.938 15.4487 141.012 15.3317 141.064 15.219C141.116 15.1063 141.142 15.0067 141.142 14.92V13.932C140.847 13.8193 140.54 13.7327 140.219 13.672C139.907 13.6113 139.591 13.581 139.27 13.581C138.637 13.581 138.126 13.7067 137.736 13.958C137.346 14.2093 137.151 14.5517 137.151 14.985C137.151 15.2363 137.216 15.4747 137.346 15.7C137.476 15.9167 137.667 16.0987 137.918 16.246C138.169 16.3847 138.464 16.454 138.802 16.454C139.227 16.454 139.621 16.3717 139.985 16.207C140.358 16.0423 140.644 15.83 140.843 15.57ZM145.899 17.078C145.275 17.078 144.742 16.961 144.3 16.727C143.858 16.4843 143.52 16.1463 143.286 15.713L144.014 15.388C144.179 15.6913 144.417 15.9297 144.729 16.103C145.041 16.2677 145.418 16.35 145.86 16.35C146.389 16.35 146.809 16.2287 147.121 15.986C147.442 15.7433 147.602 15.4183 147.602 15.011C147.602 14.6383 147.476 14.3393 147.225 14.114C146.974 13.8887 146.627 13.7717 146.185 13.763H145.496V13.152H146.237C146.428 13.152 146.601 13.1 146.757 12.996C146.913 12.892 147.034 12.7533 147.121 12.58C147.208 12.4067 147.251 12.2117 147.251 11.995C147.251 11.657 147.13 11.384 146.887 11.176C146.653 10.968 146.306 10.864 145.847 10.864C145.466 10.864 145.145 10.942 144.885 11.098C144.634 11.2453 144.43 11.4663 144.274 11.761L143.598 11.397C143.797 10.9983 144.092 10.6863 144.482 10.461C144.881 10.2357 145.344 10.123 145.873 10.123C146.306 10.123 146.683 10.1967 147.004 10.344C147.333 10.4827 147.589 10.6863 147.771 10.955C147.962 11.215 148.057 11.5313 148.057 11.904C148.057 12.2247 147.979 12.5237 147.823 12.801C147.667 13.0697 147.45 13.2733 147.173 13.412C147.572 13.5333 147.879 13.7457 148.096 14.049C148.321 14.3523 148.434 14.7077 148.434 15.115C148.434 15.5223 148.326 15.8733 148.109 16.168C147.892 16.4627 147.593 16.688 147.212 16.844C146.831 17 146.393 17.078 145.899 17.078ZM149.902 17V10.24H150.786V15.804L154.907 10.227H155.7V17H154.816V11.527L150.76 17H149.902ZM157.621 17V10.227H158.505V13.139H162.379V10.227H163.263V17H162.379V13.932H158.505V17H157.621ZM48.962 32V25.227H49.846V28.126H50.86L53.135 25.227H54.149L51.562 28.516L54.474 32H53.434L50.86 28.945H49.846V32H48.962ZM55.1575 30.05C55.1575 29.6253 55.2788 29.2613 55.5215 28.958C55.7642 28.646 56.0978 28.4077 56.5225 28.243C56.9558 28.0697 57.4542 27.983 58.0175 27.983C58.3468 27.983 58.6892 28.009 59.0445 28.061C59.3998 28.113 59.7162 28.191 59.9935 28.295V27.723C59.9935 27.151 59.8245 26.696 59.4865 26.358C59.1485 26.02 58.6805 25.851 58.0825 25.851C57.7185 25.851 57.3588 25.9203 57.0035 26.059C56.6568 26.189 56.2928 26.384 55.9115 26.644L55.5735 26.02C56.0155 25.7167 56.4488 25.4913 56.8735 25.344C57.2982 25.188 57.7315 25.11 58.1735 25.11C59.0055 25.11 59.6642 25.3483 60.1495 25.825C60.6348 26.3017 60.8775 26.9603 60.8775 27.801V30.934C60.8775 31.0553 60.9035 31.1463 60.9555 31.207C61.0075 31.259 61.0898 31.2893 61.2025 31.298V32C61.1072 32.0087 61.0248 32.0173 60.9555 32.026C60.8862 32.0347 60.8342 32.0347 60.7995 32.026C60.5828 32.0173 60.4182 31.948 60.3055 31.818C60.1928 31.688 60.1322 31.5493 60.1235 31.402L60.1105 30.908C59.8072 31.298 59.4128 31.6013 58.9275 31.818C58.4422 32.026 57.9482 32.13 57.4455 32.13C57.0122 32.13 56.6178 32.039 56.2625 31.857C55.9158 31.6663 55.6428 31.415 55.4435 31.103C55.2528 30.7823 55.1575 30.4313 55.1575 30.05ZM59.6945 30.57C59.7898 30.4487 59.8635 30.3317 59.9155 30.219C59.9675 30.1063 59.9935 30.0067 59.9935 29.92V28.932C59.6988 28.8193 59.3912 28.7327 59.0705 28.672C58.7585 28.6113 58.4422 28.581 58.1215 28.581C57.4888 28.581 56.9775 28.7067 56.5875 28.958C56.1975 29.2093 56.0025 29.5517 56.0025 29.985C56.0025 30.2363 56.0675 30.4747 56.1975 30.7C56.3275 30.9167 56.5182 31.0987 56.7695 31.246C57.0208 31.3847 57.3155 31.454 57.6535 31.454C58.0782 31.454 58.4725 31.3717 58.8365 31.207C59.2092 31.0423 59.4952 30.83 59.6945 30.57ZM62.7745 32V25.227H63.6585V28.139H67.5325V25.227H68.4165V32H67.5325V28.932H63.6585V32H62.7745ZM75.7616 33.573V32H70.3536V25.227H71.2376V31.22H74.7476V25.227H75.6316V31.22H76.5546V33.573H75.7616ZM79.5849 32V26.02H77.1669V25.227H82.8869V26.02H80.4689V32H79.5849ZM86.9762 32.13C86.4909 32.13 86.0402 32.039 85.6242 31.857C85.2169 31.6663 84.8616 31.4107 84.5582 31.09C84.2636 30.7607 84.0339 30.388 83.8692 29.972C83.7046 29.5473 83.6222 29.101 83.6222 28.633C83.6222 28.1477 83.7046 27.697 83.8692 27.281C84.0339 26.8563 84.2679 26.4837 84.5712 26.163C84.8746 25.8337 85.2299 25.578 85.6372 25.396C86.0532 25.2053 86.5039 25.11 86.9892 25.11C87.4746 25.11 87.9209 25.2053 88.3282 25.396C88.7356 25.578 89.0909 25.8337 89.3942 26.163C89.6976 26.4837 89.9316 26.8563 90.0962 27.281C90.2609 27.697 90.3432 28.1477 90.3432 28.633C90.3432 29.101 90.2609 29.5473 90.0962 29.972C89.9316 30.388 89.6976 30.7607 89.3942 31.09C89.0996 31.4107 88.7442 31.6663 88.3282 31.857C87.9209 32.039 87.4702 32.13 86.9762 32.13ZM84.5192 28.646C84.5192 29.1487 84.6276 29.608 84.8442 30.024C85.0696 30.4313 85.3686 30.7563 85.7412 30.999C86.1139 31.233 86.5256 31.35 86.9762 31.35C87.4269 31.35 87.8386 31.2287 88.2112 30.986C88.5839 30.7433 88.8829 30.414 89.1082 29.998C89.3336 29.5733 89.4462 29.114 89.4462 28.62C89.4462 28.1173 89.3336 27.658 89.1082 27.242C88.8829 26.826 88.5839 26.4967 88.2112 26.254C87.8386 26.0113 87.4269 25.89 86.9762 25.89C86.5256 25.89 86.1139 26.0157 85.7412 26.267C85.3772 26.5183 85.0826 26.852 84.8572 27.268C84.6319 27.6753 84.5192 28.1347 84.5192 28.646ZM91.8087 32V25.227H95.1887C95.57 25.227 95.8907 25.3093 96.1507 25.474C96.4107 25.63 96.6057 25.8337 96.7357 26.085C96.8743 26.3363 96.9437 26.605 96.9437 26.891C96.9437 27.255 96.857 27.5843 96.6837 27.879C96.5103 28.165 96.259 28.3817 95.9297 28.529C96.3197 28.6417 96.636 28.8453 96.8787 29.14C97.1213 29.4347 97.2427 29.79 97.2427 30.206C97.2427 30.57 97.1517 30.8863 96.9697 31.155C96.7963 31.4237 96.5537 31.6317 96.2417 31.779C95.9383 31.9263 95.5873 32 95.1887 32H91.8087ZM92.6537 31.363H95.1627C95.388 31.363 95.5917 31.3067 95.7737 31.194C95.9643 31.0727 96.1117 30.9167 96.2157 30.726C96.3283 30.5353 96.3847 30.336 96.3847 30.128C96.3847 29.9027 96.3327 29.699 96.2287 29.517C96.1247 29.3263 95.986 29.1747 95.8127 29.062C95.6393 28.9493 95.44 28.893 95.2147 28.893H92.6537V31.363ZM92.6537 28.282H94.9547C95.18 28.282 95.3793 28.2213 95.5527 28.1C95.726 27.9787 95.8603 27.8227 95.9557 27.632C96.051 27.4413 96.0987 27.242 96.0987 27.034C96.0987 26.722 95.9947 26.449 95.7867 26.215C95.5873 25.981 95.3273 25.864 95.0067 25.864H92.6537V28.282ZM98.2327 30.05C98.2327 29.6253 98.354 29.2613 98.5967 28.958C98.8394 28.646 99.173 28.4077 99.5977 28.243C100.031 28.0697 100.529 27.983 101.093 27.983C101.422 27.983 101.764 28.009 102.12 28.061C102.475 28.113 102.791 28.191 103.069 28.295V27.723C103.069 27.151 102.9 26.696 102.562 26.358C102.224 26.02 101.756 25.851 101.158 25.851C100.794 25.851 100.434 25.9203 100.079 26.059C99.732 26.189 99.368 26.384 98.9867 26.644L98.6487 26.02C99.0907 25.7167 99.524 25.4913 99.9487 25.344C100.373 25.188 100.807 25.11 101.249 25.11C102.081 25.11 102.739 25.3483 103.225 25.825C103.71 26.3017 103.953 26.9603 103.953 27.801V30.934C103.953 31.0553 103.979 31.1463 104.031 31.207C104.083 31.259 104.165 31.2893 104.278 31.298V32C104.182 32.0087 104.1 32.0173 104.031 32.026C103.961 32.0347 103.909 32.0347 103.875 32.026C103.658 32.0173 103.493 31.948 103.381 31.818C103.268 31.688 103.207 31.5493 103.199 31.402L103.186 30.908C102.882 31.298 102.488 31.6013 102.003 31.818C101.517 32.026 101.023 32.13 100.521 32.13C100.087 32.13 99.693 32.039 99.3377 31.857C98.991 31.6663 98.718 31.415 98.5187 31.103C98.328 30.7823 98.2327 30.4313 98.2327 30.05ZM102.77 30.57C102.865 30.4487 102.939 30.3317 102.991 30.219C103.043 30.1063 103.069 30.0067 103.069 29.92V28.932C102.774 28.8193 102.466 28.7327 102.146 28.672C101.834 28.6113 101.517 28.581 101.197 28.581C100.564 28.581 100.053 28.7067 99.6627 28.958C99.2727 29.2093 99.0777 29.5517 99.0777 29.985C99.0777 30.2363 99.1427 30.4747 99.2727 30.7C99.4027 30.9167 99.5934 31.0987 99.8447 31.246C100.096 31.3847 100.391 31.454 100.729 31.454C101.153 31.454 101.548 31.3717 101.912 31.207C102.284 31.0423 102.57 30.83 102.77 30.57ZM109.321 32.13C108.757 32.13 108.25 31.9827 107.8 31.688C107.358 31.3933 107.007 31.0293 106.747 30.596V34.769H105.863V25.227H106.656V26.54C106.924 26.1153 107.284 25.773 107.735 25.513C108.185 25.2443 108.666 25.11 109.178 25.11C109.646 25.11 110.075 25.2097 110.465 25.409C110.855 25.5997 111.193 25.8597 111.479 26.189C111.765 26.5183 111.986 26.8953 112.142 27.32C112.306 27.736 112.389 28.1693 112.389 28.62C112.389 29.2527 112.259 29.8377 111.999 30.375C111.747 30.9037 111.392 31.3283 110.933 31.649C110.473 31.9697 109.936 32.13 109.321 32.13ZM109.074 31.35C109.446 31.35 109.78 31.2763 110.075 31.129C110.369 30.973 110.621 30.765 110.829 30.505C111.045 30.245 111.21 29.9547 111.323 29.634C111.435 29.3047 111.492 28.9667 111.492 28.62C111.492 28.256 111.427 27.9093 111.297 27.58C111.175 27.2507 110.998 26.9603 110.764 26.709C110.53 26.4577 110.261 26.2583 109.958 26.111C109.654 25.9637 109.325 25.89 108.97 25.89C108.744 25.89 108.51 25.9333 108.268 26.02C108.025 26.1067 107.791 26.2323 107.566 26.397C107.349 26.553 107.167 26.7307 107.02 26.93C106.872 27.1293 106.781 27.3417 106.747 27.567V29.647C106.885 29.9677 107.072 30.258 107.306 30.518C107.54 30.7693 107.808 30.973 108.112 31.129C108.424 31.2763 108.744 31.35 109.074 31.35ZM116.772 32.13C116.287 32.13 115.836 32.039 115.42 31.857C115.013 31.6663 114.657 31.4107 114.354 31.09C114.059 30.7607 113.83 30.388 113.665 29.972C113.5 29.5473 113.418 29.101 113.418 28.633C113.418 28.1477 113.5 27.697 113.665 27.281C113.83 26.8563 114.064 26.4837 114.367 26.163C114.67 25.8337 115.026 25.578 115.433 25.396C115.849 25.2053 116.3 25.11 116.785 25.11C117.27 25.11 117.717 25.2053 118.124 25.396C118.531 25.578 118.887 25.8337 119.19 26.163C119.493 26.4837 119.727 26.8563 119.892 27.281C120.057 27.697 120.139 28.1477 120.139 28.633C120.139 29.101 120.057 29.5473 119.892 29.972C119.727 30.388 119.493 30.7607 119.19 31.09C118.895 31.4107 118.54 31.6663 118.124 31.857C117.717 32.039 117.266 32.13 116.772 32.13ZM114.315 28.646C114.315 29.1487 114.423 29.608 114.64 30.024C114.865 30.4313 115.164 30.7563 115.537 30.999C115.91 31.233 116.321 31.35 116.772 31.35C117.223 31.35 117.634 31.2287 118.007 30.986C118.38 30.7433 118.679 30.414 118.904 29.998C119.129 29.5733 119.242 29.114 119.242 28.62C119.242 28.1173 119.129 27.658 118.904 27.242C118.679 26.826 118.38 26.4967 118.007 26.254C117.634 26.0113 117.223 25.89 116.772 25.89C116.321 25.89 115.91 26.0157 115.537 26.267C115.173 26.5183 114.878 26.852 114.653 27.268C114.428 27.6753 114.315 28.1347 114.315 28.646ZM121.605 32V25.227H124.985C125.366 25.227 125.687 25.3093 125.947 25.474C126.207 25.63 126.402 25.8337 126.532 26.085C126.67 26.3363 126.74 26.605 126.74 26.891C126.74 27.255 126.653 27.5843 126.48 27.879C126.306 28.165 126.055 28.3817 125.726 28.529C126.116 28.6417 126.432 28.8453 126.675 29.14C126.917 29.4347 127.039 29.79 127.039 30.206C127.039 30.57 126.948 30.8863 126.766 31.155C126.592 31.4237 126.35 31.6317 126.038 31.779C125.734 31.9263 125.383 32 124.985 32H121.605ZM122.45 31.363H124.959C125.184 31.363 125.388 31.3067 125.57 31.194C125.76 31.0727 125.908 30.9167 126.012 30.726C126.124 30.5353 126.181 30.336 126.181 30.128C126.181 29.9027 126.129 29.699 126.025 29.517C125.921 29.3263 125.782 29.1747 125.609 29.062C125.435 28.9493 125.236 28.893 125.011 28.893H122.45V31.363ZM122.45 28.282H124.751C124.976 28.282 125.175 28.2213 125.349 28.1C125.522 27.9787 125.656 27.8227 125.752 27.632C125.847 27.4413 125.895 27.242 125.895 27.034C125.895 26.722 125.791 26.449 125.583 26.215C125.383 25.981 125.123 25.864 124.803 25.864H122.45V28.282Z" fill="black"/>
</svg>
